<?xml version="1.0" standalone="no"?>
<!DOCTYPE svg PUBLIC "-//W3C//DTD SVG 20010904//EN"
 "http://www.w3.org/TR/2001/REC-SVG-20010904/DTD/svg10.dtd">
<svg version="1.0" xmlns="http://www.w3.org/2000/svg"
 width="550.000000pt" height="550.000000pt" viewBox="0 0 550.000000 550.000000"
 preserveAspectRatio="xMidYMid meet">
<metadata>
Created by potrace 1.11, written by Peter Selinger 2001-2013
</metadata>
<g transform="translate(0.000000,550.000000) scale(0.100000,-0.100000)"
fill="#000000" stroke="none">
<path d="M387 5492 c-72 -5 -110 -11 -116 -20 -15 -24 -21 -403 -21 -1301 0
-1455 29 -2510 74 -2690 11 -46 11 -46 61 -53 28 -3 120 -7 206 -7 86 -1 170
-4 187 -7 l30 -6 4 -170 c3 -153 5 -171 23 -184 15 -11 80 -14 337 -14 175 0
318 -2 318 -5 0 -3 -20 -135 -45 -294 -27 -176 -45 -322 -45 -375 l0 -86 333
0 333 0 19 -56 c24 -70 82 -138 138 -159 36 -14 58 -14 152 -5 134 12 685 13
813 0 79 -7 102 -6 150 9 62 20 80 43 123 153 l21 58 322 2 321 3 6 65 c4 45
-6 159 -31 370 -21 168 -36 307 -33 310 2 2 149 7 326 10 l322 5 3 186 2 187
233 8 232 9 11 35 c19 58 33 255 45 640 20 628 1 2982 -26 3296 l-6 71 -692 6
c-1035 10 -4006 16 -4130 9z m2039 -936 c-24 -25 -49 -59 -56 -75 l-12 -31
-313 0 c-350 0 -325 -6 -325 75 0 81 -31 75 381 75 l368 0 -43 -44z m1729 -31
l0 -70 -411 -3 -411 -2 -13 40 c-7 21 -28 55 -45 75 l-33 35 457 -2 456 -3 0
-70z m-2500 -5 l0 -55 -48 -3 c-27 -2 -55 2 -62 8 -9 8 -15 8 -20 0 -9 -14
-98 -13 -113 2 -12 12 -17 90 -6 101 4 4 61 5 128 4 l121 -2 0 -55z m685 -106
c0 -3 -9 -40 -19 -82 -11 -43 -25 -103 -31 -134 l-11 -58 -24 16 c-51 33 -61
-13 -15 -68 l30 -36 -10 -119 c-5 -65 -10 -181 -10 -259 0 -78 -3 -175 -6
-217 -7 -72 -8 -77 -30 -77 -31 0 -31 -23 1 -48 23 -18 25 -26 25 -101 0 -45
-1 -81 -2 -81 -2 0 -36 -7 -77 -15 -69 -15 -74 -15 -86 2 -13 17 -15 17 -37
-3 -27 -25 -123 -39 -163 -24 -73 28 -83 177 -35 515 37 262 39 349 7 396 -31
45 -78 75 -141 90 -47 10 -52 14 -48 34 7 37 -18 41 -47 8 -18 -21 -39 -33
-66 -37 -126 -21 -241 -88 -282 -166 -13 -24 -28 -47 -33 -50 -5 -3 -9 -26 -8
-50 3 -89 -26 -330 -39 -330 -15 0 -18 -36 -3 -45 6 -4 10 -82 10 -200 0 -191
0 -194 -22 -197 -34 -5 -33 -27 1 -39 28 -10 31 -15 31 -54 0 -65 29 -214 51
-264 11 -25 30 -56 42 -69 24 -27 108 -72 132 -72 9 0 15 -9 15 -25 0 -29 15
-32 67 -10 24 10 71 15 147 15 122 0 250 17 419 55 61 13 111 24 112 22 1 -1
5 -66 9 -144 7 -138 6 -143 -15 -160 -12 -10 -35 -30 -52 -45 l-31 -28 -493 0
-493 0 0 1080 0 1080 615 0 c338 0 615 -3 615 -6z m2140 -1074 l0 -1080 -585
0 -585 0 0 58 0 59 60 -13 c33 -7 116 -18 184 -24 209 -21 365 9 527 99 95 54
124 84 148 151 15 41 24 55 38 53 10 0 41 -4 70 -8 49 -7 51 -6 47 12 -4 13
-26 29 -61 44 -55 23 -55 23 -49 59 17 95 46 298 46 323 0 27 0 27 26 11 51
-34 54 15 4 71 -16 18 -19 47 -23 245 -4 241 -14 299 -58 346 -21 22 -22 28
-12 66 23 87 -9 89 -62 4 -9 -14 -15 -15 -65 -1 -144 39 -325 -5 -407 -98
l-29 -34 -32 25 c-55 42 -71 5 -22 -52 30 -34 30 -34 20 -103 -6 -37 -14 -160
-20 -273 -5 -113 -15 -224 -21 -247 l-11 -43 -50 45 c-45 41 -78 50 -78 22 0
-10 42 -69 68 -96 33 -34 -73 -47 -142 -17 l-39 16 8 166 c7 160 8 168 36 212
16 25 29 52 29 59 0 15 -32 18 -46 3 -6 -6 -8 87 -6 253 2 144 -2 343 -8 441
-10 174 -10 179 10 201 28 30 26 53 -7 57 -22 2 -29 10 -34 36 l-6 32 568 0
569 0 0 -1080z m-1834 939 c22 -13 44 -42 64 -83 99 -200 -4 -506 -169 -506
-70 0 -104 28 -149 120 -23 48 -26 68 -26 155 -1 55 5 118 11 140 19 62 74
147 112 172 44 30 111 31 157 2z m510 1 c77 -48 128 -171 128 -310 0 -110 -23
-178 -78 -236 -39 -40 -47 -44 -92 -44 -60 0 -102 24 -144 82 -78 107 -94 308
-34 424 17 34 43 68 63 81 44 30 111 31 157 3z m954 -2663 c0 -34 -108 -349
-122 -359 -7 -4 -549 -8 -1204 -8 -939 0 -1194 3 -1207 13 -18 12 -107 309
-107 355 l0 22 1320 0 1320 0 0 -23z m-365 -494 c-19 -54 -88 -246 -153 -428
l-119 -330 -697 0 -698 0 -139 425 c-76 234 -139 426 -139 428 0 1 445 2 990
2 l990 0 -35 -97z"/>
<path d="M1460 4534 c-11 -12 -10 -18 3 -32 10 -9 17 -11 17 -5 0 7 -5 15 -10
18 -8 5 -7 11 1 21 6 8 9 14 6 14 -2 0 -10 -7 -17 -16z"/>
<path d="M1589 4538 c11 -15 11 -21 0 -35 -12 -17 -12 -17 6 0 19 17 19 17 0
35 -18 16 -18 16 -6 0z"/>
<path d="M2557 4121 c-72 -85 -54 -269 26 -279 75 -9 128 171 79 268 -24 49
-69 54 -105 11z m83 -71 c0 -30 -13 -40 -25 -20 -8 13 4 50 16 50 5 0 9 -13 9
-30z"/>
<path d="M2989 4118 c-17 -28 -20 -45 -16 -115 3 -68 8 -88 30 -122 71 -106
161 5 128 155 -24 107 -99 150 -142 82z m91 -68 c0 -16 -4 -30 -9 -30 -12 0
-19 21 -13 43 7 28 22 20 22 -13z"/>
</g>
</svg>
